<svg xmlns="http://www.w3.org/2000/svg" viewBox="0 0 1114 177"><defs><style>.cls-1{fill:#022d42;}</style></defs><g id="logo-horizontal"><g id="logo"><g id="shape"><circle class="cls-1" cx="374.36" cy="75.24" r="75"/><path class="cls-1" d="M74.36.24a75,75,0,0,0-75,75l75,75a75,75,0,0,0,0-150Z"/><path class="cls-1" d="M299.36,75.24a75,75,0,0,0-75-75l-75,75a75,75,0,1,0,150,0Z"/></g><g id="name"><path class="cls-1" d="M1038.91,45.56l23.17,65.58h1.54l23.16-65.58h27.16v2.73l-43,106c-7.09,17.53-15.63,22.71-36.43,22.71h-19.89V156.11h26.89l1.81-1.46,5.36-13.35-37.6-93V45.56Z"/><path class="cls-1" d="M1003.21,9.87v130.8H976.5V9.87Z"/><path class="cls-1" d="M911.17,43.38c30,0,51.59,16.9,51.59,49.78s-21.62,49.69-51.59,49.69-51.6-16.9-51.6-49.69S881.19,43.38,911.17,43.38Zm0,79c15,0,24.52-10.27,24.52-29.25s-9.53-29.34-24.52-29.34-24.53,10.36-24.53,29.34S896.18,122.41,911.17,122.41Z"/><path class="cls-1" d="M856.14,57.11c0,25.79-19.44,45.72-44,45.72H779.57v37.84H751.86V9.87h60.23C836.7,9.87,856.14,31.22,856.14,57.11ZM807.45,80.3c12.81,0,21.26-11.29,21.26-23.1s-8.45-24.72-21.26-24.72H779.57V80.3Z"/><path class="cls-1" d="M691.7,43.38c29,0,46.42,17,46.42,46.24v10.81H668.36c.36,12.9,8.72,22.71,23.16,22.71,14.26,0,20.08-7.18,21.53-13H736.3v2.72c-3,13.08-14.8,30-44.32,30s-49.14-16.63-49.14-49.78S662.36,43.38,691.7,43.38Zm21.44,38.88C713,71.54,706,62.82,691.34,62.82c-14.17,0-21.62,9-22.71,19.44Z"/><path class="cls-1" d="M634.93,75.27c0,40.42-26.44,65.4-67.68,65.4H515V9.87h52.23C608.49,9.87,634.93,34.85,634.93,75.27Zm-68.77,42.14c24,0,40.7-14.08,40.7-42.14s-16.72-42.15-40.7-42.15H542.82v84.29Z"/></g></g></g></svg>