<svg width="110" height="147" viewBox="0 0 110 147" fill="none" xmlns="http://www.w3.org/2000/svg">
<mask id="path-1-inside-1_2278_20008" fill="white">
<path fill-rule="evenodd" clip-rule="evenodd" d="M109.57 48.2264L62.2503 0.90625L0 0.906252V147H109.57V48.2264Z"/>
</mask>
<path fill-rule="evenodd" clip-rule="evenodd" d="M109.57 48.2264L62.2503 0.90625L0 0.906252V147H109.57V48.2264Z" fill="#F2FEBC"/>
<path d="M62.2503 0.90625L63.2834 -0.12679L62.8555 -0.55469H62.2503V0.90625ZM109.57 48.2264H111.031V47.6213L110.604 47.1934L109.57 48.2264ZM0 0.906252L-4.85436e-08 -0.554688L-1.46094 -0.554687V0.906252H0ZM0 147H-1.46094V148.461H0V147ZM109.57 147V148.461H111.031V147H109.57ZM61.2173 1.93929L108.537 49.2594L110.604 47.1934L63.2834 -0.12679L61.2173 1.93929ZM4.85436e-08 2.36719L62.2503 2.36719V-0.55469L-4.85436e-08 -0.554688L4.85436e-08 2.36719ZM1.46094 147V0.906252H-1.46094V147H1.46094ZM109.57 145.539H0V148.461H109.57V145.539ZM108.11 48.2264V147H111.031V48.2264H108.11Z" fill="#002D42" mask="url(#path-1-inside-1_2278_20008)"/>
<path d="M62.9805 2.66993L107.807 47.4961L62.9805 47.4961L62.9805 24.5665L62.9805 2.66993Z" stroke="#002D42" stroke-width="1.46094"/>
<path fill-rule="evenodd" clip-rule="evenodd" d="M65.5077 73.4621C65.5077 69.9042 67.6737 67.8945 70.852 67.8945C74.0303 67.8945 76.1963 69.9042 76.1963 73.4621C76.1963 77.02 74.0303 79.0297 70.852 79.0297C67.6737 79.0297 65.5077 77.02 65.5077 73.4621ZM66.8996 73.4621C66.8996 76.2608 68.4627 77.8536 70.852 77.8536C73.2413 77.8536 74.8044 76.2608 74.8044 73.4621C74.8044 70.6634 73.2413 69.0706 70.852 69.0706C68.4627 69.0706 66.8996 70.6634 66.8996 73.4621ZM54.0068 92.0538L54.0068 130.852L31.5032 108.315L30.4258 109.391L54.2289 133.228L54.7666 133.768L79.144 109.391L78.0686 108.315L55.5286 130.855L55.5286 92.0538H54.0068ZM54.2289 133.228L54.7682 132.69L54.7687 132.691L54.2289 133.228ZM59.229 67.8945C56.0805 67.8945 53.922 69.9042 53.922 73.4844C53.922 77.0498 56.1549 78.9999 59.1099 78.9999C60.74 78.9999 61.8937 78.4417 62.5487 77.3475H62.6678V78.8213H63.896V73.4026H58.9387V74.5339H62.6455C62.6231 76.2533 61.6258 77.8387 59.2439 77.8387C56.8472 77.8387 55.3064 76.231 55.3064 73.4844C55.3064 70.723 56.8025 69.0557 59.2514 69.0557C61.6406 69.0557 62.5041 70.5592 62.6083 71.6683H63.896V71.445C63.7769 69.8149 62.2808 67.8945 59.229 67.8945ZM41.8987 73.4621C41.8987 69.9042 44.0647 67.8945 47.243 67.8945C50.4212 67.8945 52.5872 69.9042 52.5872 73.4621C52.5872 77.02 50.4212 79.0297 47.243 79.0297C44.0647 79.0297 41.8987 77.02 41.8987 73.4621ZM43.2906 73.4621C43.2906 76.2608 44.8537 77.8536 47.243 77.8536C49.6323 77.8536 51.1953 76.2608 51.1953 73.4621C51.1953 70.6634 49.6323 69.0706 47.243 69.0706C44.8537 69.0706 43.2906 70.6634 43.2906 73.4621ZM35.3006 68.1028H33.9311V78.8211H41.2552V77.6228H35.3006V68.1028Z" fill="#002D42"/>
</svg>
