<svg width="110" height="147" viewBox="0 0 110 147" fill="none" xmlns="http://www.w3.org/2000/svg">
<mask id="path-1-inside-1_2278_20009" fill="white">
<path fill-rule="evenodd" clip-rule="evenodd" d="M109.824 48.2264L62.5042 0.90625L0.253906 0.906252V147H109.824V48.2264Z"/>
</mask>
<path fill-rule="evenodd" clip-rule="evenodd" d="M109.824 48.2264L62.5042 0.90625L0.253906 0.906252V147H109.824V48.2264Z" fill="#F2FEBC"/>
<path d="M62.5042 0.90625L63.5373 -0.12679L63.1094 -0.55469H62.5042V0.90625ZM109.824 48.2264H111.285V47.6213L110.857 47.1934L109.824 48.2264ZM0.253906 0.906252L0.253906 -0.554688L-1.20703 -0.554687V0.906252H0.253906ZM0.253906 147H-1.20703V148.461H0.253906V147ZM109.824 147V148.461H111.285V147H109.824ZM61.4712 1.93929L108.791 49.2594L110.857 47.1934L63.5373 -0.12679L61.4712 1.93929ZM0.253906 2.36719L62.5042 2.36719V-0.55469L0.253906 -0.554688L0.253906 2.36719ZM1.71485 147V0.906252H-1.20703V147H1.71485ZM109.824 145.539H0.253906V148.461H109.824V145.539ZM108.363 48.2264V147H111.285V48.2264H108.363Z" fill="#002D42" mask="url(#path-1-inside-1_2278_20009)"/>
<path d="M63.2344 2.66993L108.061 47.4961L63.2344 47.4961L63.2344 24.5665L63.2344 2.66993Z" stroke="#002D42" stroke-width="1.46094"/>
<path fill-rule="evenodd" clip-rule="evenodd" d="M37.6399 67.8945C34.4914 67.8945 32.3328 69.9042 32.3328 73.4844C32.3328 77.0498 34.5658 78.9999 37.5208 78.9999C39.1509 78.9999 40.3046 78.4417 40.9596 77.3475H41.0787V78.8213H42.3068V73.4026H37.3496V74.5339H41.0563C41.034 76.2533 40.0366 77.8387 37.6548 77.8387C35.258 77.8387 33.7173 76.231 33.7173 73.4844C33.7173 70.723 35.2134 69.0557 37.6622 69.0557C40.0515 69.0557 40.9149 70.5592 41.0191 71.6683H42.3068V71.445C42.1877 69.8149 40.6916 67.8945 37.6399 67.8945ZM77.7326 68.1028H70.2744V78.8211H77.8368V77.6674H71.6291V73.983H76.9883V72.8293H71.6291V69.2565H77.7326V68.1028ZM54.2607 130.852L54.2607 92.0538H55.7825L55.7825 130.855L78.3225 108.315L79.3979 109.391L55.0206 133.768L54.4828 133.228L55.0226 132.691L55.0221 132.69L54.4828 133.228L30.6797 109.391L31.7571 108.315L54.2607 130.852ZM63.1552 68.1028C66.3111 68.1028 68.4101 70.1274 68.4101 73.462C68.4101 76.7966 66.3111 78.8211 63.1552 78.8211H59.2251V68.1028H63.1552ZM60.5873 77.6451H63.118C65.4552 77.6451 67.0257 76.1639 67.0257 73.462C67.0257 70.7601 65.4552 69.2789 63.118 69.2789H60.5873V77.6451ZM56.8006 68.1028H55.4311V78.8211H56.8006V68.1028ZM44.4103 68.1028H45.7724V74.839C45.7724 76.7594 46.7773 77.8014 48.7348 77.8014C50.6924 77.8014 51.6973 76.7594 51.6973 74.839V68.1028H53.0668V74.8688C53.0668 77.3771 51.6452 78.9998 48.7348 78.9998C45.8543 78.9998 44.4103 77.3771 44.4103 74.8688V68.1028Z" fill="#002D42"/>
</svg>
