<svg width="259" height="259" viewBox="0 0 259 259" fill="none" xmlns="http://www.w3.org/2000/svg">
<path fill-rule="evenodd" clip-rule="evenodd" d="M93.4118 74.5792C102.977 74.5792 110.731 66.825 110.731 57.2596C110.731 47.6943 102.977 39.9401 93.4118 39.9401C83.8465 39.9401 76.0922 47.6943 76.0922 57.2596C76.0922 66.825 83.8465 74.5792 93.4118 74.5792ZM93.4118 72.1903C101.658 72.1903 108.342 65.5056 108.342 57.2596C108.342 49.0137 101.658 42.329 93.4118 42.329C85.1658 42.329 78.4811 49.0137 78.4811 57.2596C78.4811 65.5056 85.1658 72.1903 93.4118 72.1903Z" fill="black"/>
<path fill-rule="evenodd" clip-rule="evenodd" d="M79.9146 114.474C79.9146 124.039 72.1604 131.794 62.5951 131.794C53.0297 131.794 45.2755 124.039 45.2755 114.474C45.2755 104.909 53.0297 97.1544 62.5951 97.1544C72.1604 97.1544 79.9146 104.909 79.9146 114.474ZM77.5257 114.474C77.5257 122.72 70.841 129.405 62.5951 129.405C54.3491 129.405 47.6644 122.72 47.6644 114.474C47.6644 106.228 54.3491 99.5433 62.5951 99.5433C70.841 99.5433 77.5257 106.228 77.5257 114.474Z" fill="black"/>
<path fill-rule="evenodd" clip-rule="evenodd" d="M134.621 200.833C134.621 210.398 126.867 218.153 117.302 218.153C107.736 218.153 99.982 210.398 99.982 200.833C99.982 191.268 107.736 183.513 117.302 183.513C126.867 183.513 134.621 191.268 134.621 200.833ZM132.232 200.833C132.232 209.079 125.548 215.764 117.302 215.764C109.056 215.764 102.371 209.079 102.371 200.833C102.371 192.587 109.056 185.902 117.302 185.902C125.548 185.902 132.232 192.587 132.232 200.833Z" fill="black"/>
<path fill-rule="evenodd" clip-rule="evenodd" d="M177.621 156.28C177.621 165.845 169.867 173.599 160.302 173.599C150.736 173.599 142.982 165.845 142.982 156.28C142.982 146.714 150.736 138.96 160.302 138.96C169.867 138.96 177.621 146.714 177.621 156.28ZM175.232 156.28C175.232 164.526 168.548 171.21 160.302 171.21C152.056 171.21 145.371 164.526 145.371 156.28C145.371 148.034 152.056 141.349 160.302 141.349C168.548 141.349 175.232 148.034 175.232 156.28Z" fill="black"/>
<path fill-rule="evenodd" clip-rule="evenodd" d="M200.972 175.988C206.415 175.988 210.827 171.576 210.827 166.134C210.827 160.692 206.415 156.28 200.972 156.28C195.53 156.28 191.118 160.692 191.118 166.134C191.118 171.576 195.53 175.988 200.972 175.988ZM200.972 173.599C205.095 173.599 208.438 170.257 208.438 166.134C208.438 162.011 205.095 158.669 200.972 158.669C196.849 158.669 193.507 162.011 193.507 166.134C193.507 170.257 196.849 173.599 200.972 173.599Z" fill="black"/>
<path fill-rule="evenodd" clip-rule="evenodd" d="M127.096 121.939C127.096 127.382 122.684 131.793 117.242 131.793C111.799 131.793 107.387 127.382 107.387 121.939C107.387 116.497 111.799 112.085 117.242 112.085C122.684 112.085 127.096 116.497 127.096 121.939ZM124.707 121.939C124.707 126.062 121.365 129.405 117.242 129.405C113.119 129.405 109.776 126.062 109.776 121.939C109.776 117.816 113.119 114.474 117.242 114.474C121.365 114.474 124.707 117.816 124.707 121.939Z" fill="black"/>
<path fill-rule="evenodd" clip-rule="evenodd" d="M62.5362 183.513C67.9785 183.513 72.3904 179.101 72.3904 173.659C72.3904 168.217 67.9785 163.805 62.5362 163.805C57.0938 163.805 52.682 168.217 52.682 173.659C52.682 179.101 57.0938 183.513 62.5362 183.513ZM62.5362 181.124C66.6592 181.124 70.0015 177.782 70.0015 173.659C70.0015 169.536 66.6592 166.194 62.5362 166.194C58.4132 166.194 55.0709 169.536 55.0709 173.659C55.0709 177.782 58.4132 181.124 62.5362 181.124Z" fill="black"/>
<path fill-rule="evenodd" clip-rule="evenodd" d="M189.327 114.474C196.55 114.474 203.136 111.745 208.11 107.263C217.54 107.283 226.58 105.402 234.839 101.965C240.802 108.351 248.903 112.757 258.091 114.003C259.993 129.907 258.955 146.432 254.556 162.849C236.05 231.916 165.058 272.903 95.9913 254.397C26.9245 235.891 -14.0627 164.899 4.44365 95.8318C19.1408 40.9814 66.9405 3.84072 120.59 0.144367C121.399 0.0886192 122.209 0.0404787 123.021 0C122.907 0.793971 122.816 1.59619 122.75 2.40596C122.726 2.71023 122.704 3.01555 122.686 3.32191C121.882 17.1156 128.337 29.6542 138.741 37.2165C138.552 57.6138 147.261 76.2191 161.387 89.1203C162.753 103.348 174.74 114.474 189.327 114.474ZM189.327 116.863C196.83 116.863 203.704 114.147 209.011 109.648C217.867 109.557 226.38 107.844 234.244 104.78C240.024 110.497 247.501 114.546 255.92 116.077C257.503 131.132 256.403 146.728 252.249 162.231C234.084 230.023 164.402 270.254 96.6096 252.089C28.8172 233.925 -11.4137 164.242 6.75115 96.4501C21.1387 42.7552 67.8481 6.34572 120.343 2.55662C120.327 2.7649 120.314 2.97362 120.302 3.18279C119.473 17.3818 125.896 30.3258 136.351 38.41C136.503 58.7147 145.173 77.2161 159.111 90.2697C161.012 105.268 173.814 116.863 189.327 116.863Z" fill="black"/>
</svg>
